<svg width="350" height="315" viewBox="0 0 350 315" fill="none" xmlns="http://www.w3.org/2000/svg">
<defs>
<radialGradient id="paint0_radial_4_3279" cx="0" cy="0" r="1" gradientUnits="userSpaceOnUse" gradientTransform="translate(235.366 258.117) rotate(-132.97) scale(135.233 346.249)">
<stop stop-color="#A793F1" stop-opacity="0.4"/>
<stop offset="1" stop-color="#4B36B9" stop-opacity="0.5"/>
</radialGradient>
<linearGradient id="paint1_linear_4_3279" x1="198.018" y1="87.0102" x2="262.337" y2="217.281" gradientUnits="userSpaceOnUse">
<stop stop-color="white"/>
<stop offset="1" stop-color="white" stop-opacity="0"/>
</linearGradient>
<linearGradient id="paint2_linear_4_3279" x1="278.137" y1="154.602" x2="218.072" y2="221.082" gradientUnits="userSpaceOnUse">
<stop stop-color="#624EC3"/>
<stop offset="1" stop-color="white"/>
</linearGradient>
<linearGradient id="paint3_linear_4_3279" x1="281.014" y1="109.597" x2="263.934" y2="146.2" gradientUnits="userSpaceOnUse">
<stop stop-color="#EEB03A"/>
<stop offset="1" stop-color="white" stop-opacity="0.2"/>
</linearGradient>
<radialGradient id="paint4_radial_4_3279" cx="0" cy="0" r="1" gradientUnits="userSpaceOnUse" gradientTransform="translate(210.911 60.9589) rotate(109.376) scale(80.8053 93.2662)">
<stop stop-color="#FFE9BF"/>
<stop offset="1" stop-color="#F3A043"/>
</radialGradient>
<linearGradient id="paint5_linear_4_3279" x1="225.125" y1="121.216" x2="202.605" y2="144.348" gradientUnits="userSpaceOnUse">
<stop stop-color="#391BA4"/>
<stop offset="1" stop-color="#AD9ACA"/>
</linearGradient>
<clipPath id="clip0_4_3279">
<rect width="350" height="314.086" fill="white"/>
</clipPath>
</defs>
<g clip-path="url(#clip0_4_3279)">
<path d="M5.97514 236.013C-14.5945 161.899 19.6629 89.13 82.3493 45.7068C199.116 -35.1785 290.02 4.31669 323.953 63.8252C357.091 121.941 325.122 283.844 206.605 300.985C88.088 318.126 20.8014 289.434 5.97514 236.013Z" fill="#7C87D6"/>
<path d="M19.4515 244.014C-1.1182 169.9 33.1392 97.1312 95.8254 53.708C212.592 -27.1772 303.496 12.3178 337.43 71.8264C370.569 129.942 338.599 291.845 220.081 308.986C101.564 326.127 34.2777 297.434 19.4515 244.014Z" fill="#111A58"/>
<path d="M185.788 186.955L187.2 180.226L177.274 178.032L175.862 184.761C174.205 184.845 172.586 185.142 171.038 185.638L167.325 179.838L158.817 185.378L162.53 191.178C161.446 192.396 160.511 193.761 159.754 195.249L153.092 193.778L150.988 203.809L157.65 205.281C157.744 206.958 158.047 208.598 158.547 210.165L152.836 213.886L158.365 222.532L164.076 218.811C165.286 219.916 166.642 220.875 168.117 221.646L166.706 228.379L176.632 230.573L178.043 223.841C179.701 223.76 181.319 223.46 182.864 222.965L186.577 228.769L195.085 223.229L191.371 217.425C192.455 216.207 193.39 214.842 194.147 213.353L200.809 214.825L202.913 204.793L196.251 203.322C196.157 201.644 195.854 200.004 195.354 198.438L201.065 194.717L195.536 186.071L189.828 189.791C188.62 188.69 187.264 187.731 185.788 186.955ZM174.504 215.99C168.119 214.577 164.038 208.2 165.393 201.748C166.748 195.296 173.022 191.206 179.407 192.619C185.791 194.032 189.872 200.408 188.517 206.861C187.163 213.313 180.889 217.402 174.504 215.99Z" fill="white"/>
<path d="M132.646 111.177C130.204 111.731 127.765 111.703 125.477 111.179C123.806 110.796 118.675 113.351 117.223 112.481C115.901 111.69 118.236 107.511 117.186 106.371C115.337 104.369 113.973 101.868 113.325 99.0185C111.349 90.3237 116.793 81.674 125.483 79.6977C134.178 77.7214 142.828 83.1654 144.804 91.856C146.784 100.551 141.341 109.201 132.646 111.177Z" fill="#EEB03A"/>
<path d="M129.842 92.4565C128.288 92.0399 126.691 92.9622 126.274 94.5163C125.858 96.0701 126.78 97.6676 128.334 98.0839C129.888 98.5005 131.485 97.5782 131.902 96.0241C132.318 94.47 131.396 92.8728 129.842 92.4565Z" fill="white"/>
<path d="M121.704 92.3046C120.15 91.888 118.553 92.8104 118.137 94.3645C117.72 95.9186 118.643 97.5158 120.196 97.9321C121.75 98.3487 123.348 97.4263 123.764 95.8722C124.181 94.3185 123.259 92.7209 121.704 92.3046Z" fill="white"/>
<path d="M138.043 92.6064C136.489 92.1898 134.892 93.1121 134.475 94.6662C134.059 96.22 134.981 97.8175 136.535 98.2338C138.089 98.6504 139.687 97.7281 140.103 96.174C140.519 94.6199 139.597 93.0227 138.043 92.6064Z" fill="white"/>
<path d="M227.185 244.933C252.172 217.404 243.482 193.899 212.878 178.075C182.273 162.252 172.405 188.29 172.405 188.29C172.405 188.29 177.213 172.717 183.569 155.067C188.988 140.04 166.704 107.789 130.899 123.559C102.254 136.174 117.149 170.962 117.149 170.962C117.149 170.962 109.952 169.18 101.673 165.313C72.5995 154.701 45.9659 195.998 101.1 232.129C195.332 290.946 227.185 244.933 227.185 244.933Z" fill="url(#paint0_radial_4_3279)"/>
<path d="M83.0964 276.001H87.4952L89.588 259.034L83.0957 259.034L83.0964 276.001Z" fill="#FFDBDB"/>
<path d="M81.9741 274.565L90.6369 274.564H90.6373C92.1016 274.564 93.5055 275.146 94.5408 276.181C95.5761 277.217 96.1579 278.621 96.1579 280.085V280.264L81.9744 280.265L81.9741 274.565Z" fill="#704FE9"/>
<path d="M112.154 276.001H116.553L118.646 259.034L112.154 259.034L112.154 276.001Z" fill="#FFDBDB"/>
<path d="M207.799 249.119L208.447 246.031L203.892 245.024L203.245 248.112C202.484 248.15 201.741 248.286 201.031 248.514L199.327 245.852L195.423 248.395L197.127 251.056C196.63 251.615 196.2 252.241 195.853 252.925L192.796 252.249L191.831 256.852L194.888 257.528C194.931 258.297 195.07 259.05 195.299 259.769L192.679 261.476L195.216 265.443L197.837 263.736C198.392 264.243 199.014 264.683 199.691 265.037L199.043 268.126L203.598 269.133L204.246 266.044C205.006 266.007 205.748 265.869 206.457 265.642L208.162 268.305L212.065 265.763L210.361 263.1C210.859 262.541 211.288 261.915 211.635 261.232L214.692 261.907L215.657 257.304L212.6 256.628C212.557 255.859 212.418 255.106 212.189 254.387L214.81 252.68L212.272 248.713L209.653 250.42C209.099 249.914 208.477 249.474 207.799 249.119ZM202.621 262.441C199.692 261.793 197.819 258.867 198.441 255.906C199.063 252.946 201.942 251.069 204.871 251.718C207.801 252.366 209.674 255.291 209.052 258.252C208.43 261.213 205.551 263.09 202.621 262.441Z" fill="white"/>
<path d="M111.032 274.565L119.695 274.564H119.695C121.159 274.564 122.563 275.146 123.599 276.181C124.634 277.217 125.216 278.621 125.216 280.085V280.264L111.032 280.265L111.032 274.565Z" fill="#704FE9"/>
<path d="M79.4131 272.322H90.808L98.0911 208.55L111.482 272.322H119.17V196.276L82.615 185.336L79.4131 272.322Z" fill="#704FE9"/>
<path d="M98.8424 129.226C104.33 129.226 108.78 124.777 108.78 119.289C108.78 113.801 104.33 109.352 98.8424 109.352C93.3541 109.352 88.9053 113.801 88.9053 119.289C88.9053 124.777 93.3541 129.226 98.8424 129.226Z" fill="#FFDBDB"/>
<path d="M83.4155 186.937C94.0781 195.276 105.847 199.479 119.17 197.877C113.544 178.121 111.875 158.514 117.302 139.175L106.096 134.106L93.4986 133.305L84.3431 135.998C83.055 136.377 81.9273 137.169 81.134 138.252C80.3403 139.335 79.9246 140.649 79.9514 141.992C80.2746 158.484 79.178 173.918 83.4155 186.937Z" fill="#E2D5F5"/>
<path d="M89.3317 114.292C90.2877 112.488 91.5026 108.893 93.4322 108.227C94.5037 107.871 95.6112 107.635 96.7343 107.523L100.014 108.784L98.2293 107.396C98.5767 107.375 98.9241 107.359 99.2712 107.345L101.484 108.197L100.352 107.316C102.415 107.295 104.544 107.509 106.143 108.765C107.506 109.836 108.856 113.892 109.074 115.611C109.308 117.255 109.226 118.93 108.834 120.544L108.273 121.077C108.077 120.627 107.93 120.158 107.833 119.677C107.633 118.779 107.247 117.932 106.701 117.191C106.154 116.45 105.46 115.831 104.661 115.373L104.63 115.356C103.691 114.827 102.55 114.851 101.472 114.89L96.353 115.074C95.1214 115.118 93.7952 115.196 92.835 115.969C92.1863 116.491 91.7977 117.261 91.4282 118.006C90.9511 118.97 90.0187 122.601 90.0187 122.601C90.0187 122.601 89.4914 121.916 89.2384 122.426C88.8332 121.095 88.5867 119.72 88.5041 118.331C88.4234 116.936 88.7088 115.543 89.3317 114.292Z" fill="white"/>
<path d="M294.178 180.747H179.46C177.498 180.745 175.618 179.965 174.231 178.578C172.844 177.191 172.064 175.31 172.062 173.349V94.2452C172.064 92.2837 172.844 90.4031 174.231 89.0161C175.618 87.6292 177.498 86.8492 179.46 86.8469H294.178C296.139 86.8492 298.02 87.6292 299.407 89.0161C300.794 90.4031 301.574 92.2837 301.576 94.2452V173.349C301.574 175.31 300.794 177.191 299.407 178.578C298.02 179.965 296.139 180.745 294.178 180.747ZM179.46 87.4999C177.672 87.5019 175.957 88.2133 174.692 89.4778C173.428 90.7423 172.716 92.4567 172.715 94.2452V173.349C172.716 175.137 173.428 176.852 174.692 178.116C175.957 179.381 177.672 180.092 179.46 180.094H294.178C295.966 180.092 297.681 179.381 298.945 178.116C300.21 176.852 300.921 175.137 300.923 173.349V94.2452C300.921 92.4567 300.21 90.7423 298.945 89.4778C297.681 88.2133 295.966 87.5019 294.178 87.4999H179.46Z" fill="#F0F0F0"/>
<path d="M162.821 185.103V105.999C162.823 104.124 163.569 102.327 164.894 101.001C166.22 99.6752 168.018 98.9292 169.892 98.9272H284.61C286.485 98.9292 288.283 99.6752 289.609 101.001C290.934 102.327 291.68 104.124 291.682 105.999V185.103C291.68 186.978 290.934 188.775 289.609 190.101C288.283 191.427 286.485 192.172 284.61 192.175H169.892C168.018 192.172 166.22 191.427 164.894 190.101C163.569 188.775 162.823 186.978 162.821 185.103Z" fill="#7C87D6"/>
<path d="M167.333 185.242V105.86C167.333 105.282 167.563 104.728 167.972 104.319C168.38 103.91 168.934 103.681 169.513 103.68H284.99C285.568 103.681 286.122 103.91 286.531 104.319C286.94 104.728 287.17 105.282 287.17 105.86V185.242C287.17 185.82 286.94 186.374 286.531 186.783C286.122 187.191 285.568 187.421 284.99 187.422H169.513C168.934 187.421 168.38 187.191 167.972 186.783C167.563 186.374 167.333 185.82 167.333 185.242Z" fill="url(#paint1_linear_4_3279)"/>
<path d="M89.6656 193.451C89.6633 192.954 89.5517 192.462 89.3391 192.012C89.1263 191.562 88.8174 191.164 88.4341 190.846C88.0508 190.528 87.6025 190.298 87.1209 190.172C86.639 190.046 86.1356 190.027 85.6459 190.117L79.6821 179.584L77.2217 184.627L82.9209 194.328C83.126 195.141 83.6226 195.85 84.3157 196.322C85.0092 196.793 85.8512 196.994 86.6825 196.886C87.514 196.777 88.2767 196.368 88.8265 195.735C89.3764 195.103 89.6748 194.29 89.6656 193.451Z" fill="#FFDBDB"/>
<path d="M116.331 205.161C116.095 204.722 115.959 204.237 115.931 203.74C115.904 203.243 115.985 202.746 116.171 202.284C116.356 201.822 116.641 201.406 117.004 201.065C117.367 200.725 117.801 200.468 118.274 200.314L118.495 188.211L123.682 191.769L122.678 202.716C122.885 203.528 122.786 204.389 122.402 205.134C122.017 205.879 121.373 206.456 120.59 206.758C119.808 207.059 118.942 207.063 118.157 206.769C117.372 206.475 116.722 205.903 116.331 205.161Z" fill="#FFDBDB"/>
<path d="M80.2137 192.007L84.4829 188.004L82.2918 166.392L84.8267 135.84C79.3204 137.57 73.408 142.219 72.434 147.909L68.9507 168.259L80.2137 192.007Z" fill="#E2D5F5"/>
<path opacity="0.2" d="M82.6924 154.784L79.2234 168.659L84.4829 188.348L81.0913 169.726L82.6924 154.784Z" fill="#CEBEF3"/>
<path d="M117.036 199.478L123.973 200.279L122.349 148.763C122.276 146.461 121.542 144.229 120.235 142.333C118.927 140.438 117.101 138.958 114.976 138.072L112.5 137.041L113.167 161.189L117.036 199.478Z" fill="#E2D5F5"/>
<path d="M279.692 178.325L288.67 175.16L284.132 161.838L275.154 165.003C273.864 163.103 272.35 161.4 270.65 159.925L274.845 151.363L262.174 145.277L257.979 153.839C255.76 153.431 253.473 153.306 251.167 153.48L248.12 144.539L234.737 149.259L237.784 158.2C235.867 159.517 234.144 161.055 232.649 162.771L224.141 158.688L217.884 171.445L226.392 175.529C225.954 177.754 225.794 180.048 225.941 182.348L216.959 185.517L221.497 198.84L230.478 195.671C231.765 197.574 233.283 199.273 234.979 200.745L230.78 209.311L243.45 215.397L247.65 206.831C249.869 207.239 252.156 207.364 254.462 207.19L257.509 216.131L270.892 211.411L267.845 202.47C269.762 201.153 271.485 199.615 272.98 197.898L281.488 201.982L287.745 189.225L279.241 185.145C279.675 182.923 279.835 180.63 279.692 178.325ZM237.225 185.84C234.308 177.269 238.92 167.857 247.53 164.823C256.139 161.789 265.487 166.275 268.404 174.845C271.321 183.416 266.708 192.828 258.099 195.862C249.49 198.896 240.142 194.411 237.225 185.84Z" fill="url(#paint2_linear_4_3279)"/>
<path d="M284.825 119.614L288.275 117.061L284.555 111.921L281.105 114.473C280.298 113.826 279.42 113.293 278.492 112.882L279.166 108.636L272.899 107.692L272.226 111.937C271.215 112.055 270.213 112.304 269.242 112.685L266.745 109.235L261.603 113.042L264.1 116.492C263.448 117.313 262.91 118.204 262.493 119.141L258.286 118.508L257.279 124.834L261.486 125.467C261.592 126.484 261.826 127.494 262.195 128.466L258.744 131.021L262.464 136.162L265.914 133.607C266.721 134.256 267.6 134.788 268.526 135.197L267.851 139.445L274.117 140.389L274.792 136.141C275.803 136.024 276.805 135.775 277.776 135.394L280.273 138.844L285.415 135.037L282.918 131.588C283.57 130.766 284.108 129.875 284.525 128.938L288.732 129.571L289.739 123.245L285.534 122.613C285.427 121.598 285.192 120.588 284.825 119.614ZM267.52 128.476C265.128 125.169 265.869 120.502 269.177 118.055C272.485 115.607 277.108 116.302 279.5 119.609C281.892 122.916 281.151 127.583 277.843 130.031C274.534 132.479 269.912 131.783 267.52 128.476Z" fill="url(#paint3_linear_4_3279)"/>
<path opacity="0.2" d="M114.438 161.977L117.116 191.708L112.582 162.185L114.438 161.977Z" fill="#CEBEF3"/>
<path d="M229.386 74.5782C223.898 57.5999 204.974 49.0589 187.938 56.3929C173.608 62.5587 165.544 78.4471 169.182 93.3172C171.728 103.717 179.151 111.298 188.322 114.553C192.88 116.174 196.351 119.869 197.836 124.47L198.113 125.345C198.81 127.503 201.148 128.63 203.33 127.864L221.446 121.504C223.627 120.738 224.829 118.363 224.131 116.205L223.847 115.337C222.323 110.613 223.146 105.443 225.854 101.139C230.758 93.4047 232.343 83.7389 229.386 74.5782Z" fill="url(#paint4_radial_4_3279)"/>
<path fill-rule="evenodd" clip-rule="evenodd" d="M201.213 132.166L225.441 123.657C225.976 123.472 226.273 122.882 226.106 122.353C225.931 121.817 225.357 121.545 224.821 121.73L200.593 130.239C200.051 130.43 199.762 131.013 199.929 131.543C200.104 132.079 200.678 132.35 201.213 132.166ZM202.246 135.355L226.475 126.846C227.01 126.662 227.306 126.072 227.139 125.542C226.964 125.006 226.39 124.735 225.855 124.919L201.627 133.428C201.085 133.62 200.795 134.203 200.962 134.732C201.137 135.268 201.711 135.54 202.246 135.355ZM227.509 130.037L203.28 138.546C202.746 138.73 202.171 138.459 201.997 137.923C201.829 137.393 202.119 136.81 202.661 136.619L226.889 128.11C227.424 127.925 227.999 128.196 228.173 128.732C228.334 129.269 228.037 129.845 227.509 130.037ZM204.306 141.729L228.534 133.219C229.069 133.035 229.366 132.458 229.198 131.915C229.024 131.38 228.45 131.108 227.915 131.292L203.687 139.802C203.145 139.993 202.855 140.576 203.023 141.106C203.197 141.642 203.771 141.913 204.306 141.729Z" fill="url(#paint5_linear_4_3279)"/>
<path d="M265.112 49.9533C266.374 49.9533 267.397 48.8569 267.397 47.5046C267.397 46.1523 266.374 45.0559 265.112 45.0559C263.85 45.0559 262.827 46.1523 262.827 47.5046C262.827 48.8569 263.85 49.9533 265.112 49.9533Z" fill="#E6E6E6"/>
<path d="M42.1175 191.325C43.3797 191.325 44.4029 190.228 44.4029 188.876C44.4029 187.524 43.3797 186.427 42.1175 186.427C40.8553 186.427 39.832 187.524 39.832 188.876C39.832 190.228 40.8553 191.325 42.1175 191.325Z" fill="#E6E6E6"/>
<path d="M267.397 243.89C268.66 243.89 269.683 242.794 269.683 241.441C269.683 240.089 268.66 238.993 267.397 238.993C266.135 238.993 265.112 240.089 265.112 241.441C265.112 242.794 266.135 243.89 267.397 243.89Z" fill="#E6E6E6"/>
<path d="M143.004 150.84C144.266 150.84 145.289 149.743 145.289 148.391C145.289 147.038 144.266 145.942 143.004 145.942C141.741 145.942 140.718 147.038 140.718 148.391C140.718 149.743 141.741 150.84 143.004 150.84Z" fill="#E6E6E6"/>
<path d="M140.718 283.395C141.981 283.395 143.004 282.299 143.004 280.947C143.004 279.594 141.981 278.498 140.718 278.498C139.456 278.498 138.433 279.594 138.433 280.947C138.433 282.299 139.456 283.395 140.718 283.395Z" fill="#E6E6E6"/>
<path d="M49.6268 134.841C50.348 134.841 50.9327 134.257 50.9327 133.535C50.9327 132.814 50.348 132.229 49.6268 132.229C48.9055 132.229 48.3208 132.814 48.3208 133.535C48.3208 134.257 48.9055 134.841 49.6268 134.841Z" fill="#E6E6E6"/>
<path d="M166.185 33.9552C166.906 33.9552 167.491 33.3705 167.491 32.6492C167.491 31.928 166.906 31.3433 166.185 31.3433C165.464 31.3433 164.879 31.928 164.879 32.6492C164.879 33.3705 165.464 33.9552 166.185 33.9552Z" fill="#E6E6E6"/>
<path d="M137.127 173.694C137.848 173.694 138.433 173.109 138.433 172.388C138.433 171.667 137.848 171.082 137.127 171.082C136.406 171.082 135.821 171.667 135.821 172.388C135.821 173.109 136.406 173.694 137.127 173.694Z" fill="#E6E6E6"/>
<path d="M334.328 98.9271C335.05 98.9271 335.634 98.3424 335.634 97.6212C335.634 96.8999 335.05 96.3152 334.328 96.3152C333.607 96.3152 333.022 96.8999 333.022 97.6212C333.022 98.3424 333.607 98.9271 334.328 98.9271Z" fill="#E6E6E6"/>
<path d="M274.907 73.1344C275.628 73.1344 276.213 72.5497 276.213 71.8284C276.213 71.1072 275.628 70.5225 274.907 70.5225C274.185 70.5225 273.601 71.1072 273.601 71.8284C273.601 72.5497 274.185 73.1344 274.907 73.1344Z" fill="#E6E6E6"/>
<path d="M139.412 59.7482C140.134 59.7482 140.718 59.1634 140.718 58.4422C140.718 57.721 140.134 57.1362 139.412 57.1362C138.691 57.1362 138.106 57.721 138.106 58.4422C138.106 59.1634 138.691 59.7482 139.412 59.7482Z" fill="#E6E6E6"/>
<path d="M59.095 214.179C59.8162 214.179 60.401 213.594 60.401 212.873C60.401 212.152 59.8162 211.567 59.095 211.567C58.3738 211.567 57.7891 212.152 57.7891 212.873C57.7891 213.594 58.3738 214.179 59.095 214.179Z" fill="#E6E6E6"/>
<path d="M52.2388 266.091C52.9601 266.091 53.5448 265.507 53.5448 264.785C53.5448 264.064 52.9601 263.479 52.2388 263.479C51.5176 263.479 50.9329 264.064 50.9329 264.785C50.9329 265.507 51.5176 266.091 52.2388 266.091Z" fill="#E6E6E6"/>
<path d="M225.933 296.455C226.654 296.455 227.239 295.87 227.239 295.149C227.239 294.428 226.654 293.843 225.933 293.843C225.212 293.843 224.627 294.428 224.627 295.149C224.627 295.87 225.212 296.455 225.933 296.455Z" fill="#E6E6E6"/>
<path d="M218.097 227.565C218.818 227.565 219.403 226.981 219.403 226.259C219.403 225.538 218.818 224.953 218.097 224.953C217.376 224.953 216.791 225.538 216.791 226.259C216.791 226.981 217.376 227.565 218.097 227.565Z" fill="#E6E6E6"/>
<path d="M321.269 199.161C321.99 199.161 322.575 198.576 322.575 197.855C322.575 197.133 321.99 196.549 321.269 196.549C320.547 196.549 319.963 197.133 319.963 197.855C319.963 198.576 320.547 199.161 321.269 199.161Z" fill="#E6E6E6"/>
</g>
</svg>