<svg width="350" height="338" viewBox="0 0 350 338" fill="none" xmlns="http://www.w3.org/2000/svg">
<defs>
<linearGradient id="paint0_linear_4_3601" x1="291.522" y1="90.1219" x2="167.637" y2="250.588" gradientUnits="userSpaceOnUse">
<stop offset="0.24452" stop-color="#7F61E9"/>
<stop offset="1" stop-color="white" stop-opacity="0"/>
</linearGradient>
<linearGradient id="paint1_linear_4_3601" x1="211.139" y1="150.109" x2="211.139" y2="256" gradientUnits="userSpaceOnUse">
<stop stop-color="white" stop-opacity="0"/>
<stop offset="0.430555" stop-color="white" stop-opacity="0.430555"/>
<stop offset="1" stop-color="white"/>
</linearGradient>
<linearGradient id="paint2_linear_4_3601" x1="211.14" y1="135.654" x2="211.14" y2="270.267" gradientUnits="userSpaceOnUse">
<stop stop-color="white" stop-opacity="0"/>
<stop offset="0.430555" stop-color="white" stop-opacity="0.430555"/>
<stop offset="1" stop-color="white"/>
</linearGradient>
<linearGradient id="paint3_linear_4_3601" x1="189.806" y1="94.9689" x2="156.1" y2="100.831" gradientUnits="userSpaceOnUse">
<stop stop-color="#EEB03A"/>
<stop offset="0.96436" stop-color="white" stop-opacity="0"/>
</linearGradient>
<linearGradient id="paint4_linear_4_3601" x1="252.13" y1="275.997" x2="226.466" y2="280.479" gradientUnits="userSpaceOnUse">
<stop stop-color="white"/>
<stop offset="0.96436" stop-color="white" stop-opacity="0"/>
</linearGradient>
<linearGradient id="paint5_linear_4_3601" x1="41.6869" y1="194.166" x2="189.188" y2="194.166" gradientUnits="userSpaceOnUse">
<stop stop-color="white"/>
<stop offset="1" stop-color="white" stop-opacity="0"/>
</linearGradient>
<linearGradient id="paint6_linear_4_3601" x1="50.0945" y1="230.676" x2="188.752" y2="215.956" gradientUnits="userSpaceOnUse">
<stop stop-color="white"/>
<stop offset="1" stop-color="white" stop-opacity="0"/>
</linearGradient>
<clipPath id="clip0_4_3601">
<rect width="350" height="337.159" fill="white"/>
</clipPath>
</defs>
<g clip-path="url(#clip0_4_3601)">
<path d="M18.6039 249.077C-2.70596 172.296 18.6038 70.8231 83.5459 25.8374C204.514 -57.9581 299.873 83.5861 335.029 145.236C369.36 205.443 349.233 298.629 226.453 316.387C103.671 334.143 33.9638 304.42 18.6039 249.077Z" fill="#7C87D6"/>
<path d="M7.97545 264.428C-13.3344 187.647 7.97539 86.1747 72.9173 41.189C193.886 -42.6065 289.245 98.9377 324.399 160.588C358.732 220.794 338.605 313.981 215.825 331.739C93.0431 349.496 23.3352 319.771 7.97545 264.428Z" fill="#111A58"/>
<path d="M244.39 157.429C257.843 180.729 249.859 210.524 226.559 223.976C203.259 237.429 173.464 229.445 160.012 206.145C146.559 182.845 154.543 153.05 177.843 139.598C201.143 126.145 230.938 134.129 244.39 157.429Z" fill="url(#paint0_linear_4_3601)"/>
<path d="M231.279 236.464C193.635 259.051 154.108 262.627 143.003 244.181C131.898 225.735 153.355 192.232 191 169.645C228.644 147.058 268.171 143.482 279.276 161.928C290.381 180.374 268.924 213.689 231.279 236.464ZM192.694 172.28C158.249 192.985 138.674 223.665 148.838 240.605C159.002 257.545 195.329 254.346 229.774 233.641C264.219 212.936 283.794 182.256 273.63 165.316C263.277 148.376 226.95 151.576 192.694 172.28Z" fill="url(#paint1_linear_4_3601)"/>
<path d="M236.738 245.499C188.93 274.297 138.674 278.626 124.558 255.098C110.441 231.571 137.733 189.22 185.542 160.422C233.35 131.624 283.606 127.295 297.723 150.823C311.839 174.163 284.547 216.701 236.738 245.499ZM187.612 163.999C143.945 190.35 118.911 229.312 131.898 250.769C144.886 272.227 191 268.274 234.668 241.923C278.336 215.572 303.369 176.609 290.382 155.152C277.394 133.695 231.28 137.647 187.612 163.999Z" fill="url(#paint2_linear_4_3601)"/>
<path d="M181.914 68.8147L178.856 90.3264L157.055 93.3443L178.856 96.3623L181.914 117.874L184.973 96.3623L206.773 93.3443L184.973 90.3264L181.914 68.8147Z" fill="url(#paint3_linear_4_3601)"/>
<path d="M159.196 212.371C160.378 212.371 161.336 211.413 161.336 210.23C161.336 209.048 160.378 208.09 159.196 208.09C158.014 208.09 157.055 209.048 157.055 210.23C157.055 211.413 158.014 212.371 159.196 212.371Z" fill="#E5AD44"/>
<path d="M159.196 175.494C160.378 175.494 161.336 174.536 161.336 173.354C161.336 172.172 160.378 171.214 159.196 171.214C158.014 171.214 157.055 172.172 157.055 173.354C157.055 174.536 158.014 175.494 159.196 175.494Z" fill="#F0F0F0"/>
<path d="M159.196 248.26C160.378 248.26 161.336 247.375 161.336 246.284C161.336 245.193 160.378 244.309 159.196 244.309C158.014 244.309 157.055 245.193 157.055 246.284C157.055 247.375 158.014 248.26 159.196 248.26Z" fill="#7C87D6"/>
<path d="M105.033 77.3754C106.306 77.3754 107.338 76.2697 107.338 74.906C107.338 73.5422 106.306 72.4365 105.033 72.4365C103.76 72.4365 102.728 73.5422 102.728 74.906C102.728 76.2697 103.76 77.3754 105.033 77.3754Z" fill="#E6E6E6"/>
<path d="M306.867 212.371C308.14 212.371 309.172 211.265 309.172 209.901C309.172 208.538 308.14 207.432 306.867 207.432C305.594 207.432 304.562 208.538 304.562 209.901C304.562 211.265 305.594 212.371 306.867 212.371Z" fill="#E6E6E6"/>
<path d="M95.1551 304.892C96.428 304.892 97.4599 303.786 97.4599 302.422C97.4599 301.059 96.428 299.953 95.1551 299.953C93.8822 299.953 92.8503 301.059 92.8503 302.422C92.8503 303.786 93.8822 304.892 95.1551 304.892Z" fill="#E6E6E6"/>
<path d="M25.0235 160.677C26.2965 160.677 27.3283 159.572 27.3283 158.208C27.3283 156.844 26.2965 155.739 25.0235 155.739C23.7506 155.739 22.7188 156.844 22.7188 158.208C22.7188 159.572 23.7506 160.677 25.0235 160.677Z" fill="#E6E6E6"/>
<path d="M16.1337 203.151C16.861 203.151 17.4507 202.562 17.4507 201.834C17.4507 201.107 16.861 200.517 16.1337 200.517C15.4063 200.517 14.8167 201.107 14.8167 201.834C14.8167 202.562 15.4063 203.151 16.1337 203.151Z" fill="#E6E6E6"/>
<path d="M218.627 308.514C219.354 308.514 219.944 307.924 219.944 307.197C219.944 306.469 219.354 305.88 218.627 305.88C217.899 305.88 217.31 306.469 217.31 307.197C217.31 307.924 217.899 308.514 218.627 308.514Z" fill="#E6E6E6"/>
<path d="M168.25 325.635C168.977 325.635 169.567 325.045 169.567 324.318C169.567 323.591 168.977 323.001 168.25 323.001C167.523 323.001 166.933 323.591 166.933 324.318C166.933 325.045 167.523 325.635 168.25 325.635Z" fill="#E6E6E6"/>
<path d="M122.154 277.893C122.882 277.893 123.471 277.303 123.471 276.576C123.471 275.848 122.882 275.259 122.154 275.259C121.427 275.259 120.837 275.848 120.837 276.576C120.837 277.303 121.427 277.893 122.154 277.893Z" fill="#E6E6E6"/>
<path d="M80.6679 107.338C81.3952 107.338 81.9849 106.748 81.9849 106.021C81.9849 105.293 81.3952 104.704 80.6679 104.704C79.9405 104.704 79.3508 105.293 79.3508 106.021C79.3508 106.748 79.9405 107.338 80.6679 107.338Z" fill="#E6E6E6"/>
<path d="M61.2418 76.0584C61.9692 76.0584 62.5589 75.4687 62.5589 74.7413C62.5589 74.014 61.9692 73.4243 61.2418 73.4243C60.5145 73.4243 59.9248 74.014 59.9248 74.7413C59.9248 75.4687 60.5145 76.0584 61.2418 76.0584Z" fill="#E6E6E6"/>
<path d="M215.993 63.8758C216.72 63.8758 217.31 63.2861 217.31 62.5587C217.31 61.8314 216.72 61.2417 215.993 61.2417C215.265 61.2417 214.676 61.8314 214.676 62.5587C214.676 63.2861 215.265 63.8758 215.993 63.8758Z" fill="#E6E6E6"/>
<path d="M317.074 179.116C317.802 179.116 318.391 178.526 318.391 177.799C318.391 177.071 317.802 176.482 317.074 176.482C316.347 176.482 315.757 177.071 315.757 177.799C315.757 178.526 316.347 179.116 317.074 179.116Z" fill="#E6E6E6"/>
<path d="M270.978 120.508C271.706 120.508 272.295 119.918 272.295 119.191C272.295 118.464 271.706 117.874 270.978 117.874C270.251 117.874 269.661 118.464 269.661 119.191C269.661 119.918 270.251 120.508 270.978 120.508Z" fill="#E6E6E6"/>
<path d="M136.641 33.2549C137.369 33.2549 137.959 32.6652 137.959 31.9379C137.959 31.2105 137.369 30.6208 136.641 30.6208C135.914 30.6208 135.324 31.2105 135.324 31.9379C135.324 32.6652 135.914 33.2549 136.641 33.2549Z" fill="#E6E6E6"/>
<path d="M155.738 61.2417C156.466 61.2417 157.055 60.652 157.055 59.9247C157.055 59.1974 156.466 58.6077 155.738 58.6077C155.011 58.6077 154.421 59.1974 154.421 59.9247C154.421 60.652 155.011 61.2417 155.738 61.2417Z" fill="#E6E6E6"/>
<path d="M162.653 130.056C163.38 130.056 163.97 129.467 163.97 128.739C163.97 128.012 163.38 127.422 162.653 127.422C161.926 127.422 161.336 128.012 161.336 128.739C161.336 129.467 161.926 130.056 162.653 130.056Z" fill="#E6E6E6"/>
<path d="M289.088 242.004C289.815 242.004 290.405 241.414 290.405 240.687C290.405 239.959 289.815 239.37 289.088 239.37C288.36 239.37 287.771 239.959 287.771 240.687C287.771 241.414 288.36 242.004 289.088 242.004Z" fill="#E6E6E6"/>
<path d="M295.343 284.478C296.071 284.478 296.66 283.888 296.66 283.161C296.66 282.433 296.071 281.844 295.343 281.844C294.616 281.844 294.026 282.433 294.026 283.161C294.026 283.888 294.616 284.478 295.343 284.478Z" fill="#E6E6E6"/>
<path d="M246.12 256.162L243.79 272.476L227.187 274.765L243.79 277.054L246.12 293.368L248.449 277.054L265.052 274.765L248.449 272.476L246.12 256.162Z" fill="url(#paint4_linear_4_3601)"/>
<path d="M177.461 163.998L95.2768 153.498C95.0552 153.469 94.8323 153.455 94.609 153.454C94.3891 153.454 94.1692 153.468 93.9512 153.496C93.7332 153.524 93.5176 153.566 93.3052 153.623C93.0902 153.68 92.8795 153.751 92.6737 153.836C92.4722 153.919 92.2759 154.014 92.086 154.121C91.8933 154.228 91.7073 154.347 91.5288 154.477C91.3461 154.609 91.1713 154.753 91.0047 154.905C90.8328 155.062 90.6695 155.229 90.5154 155.404C90.3573 155.583 90.2085 155.771 90.0693 155.967C89.929 156.164 89.7973 156.37 89.6741 156.583C89.551 156.798 89.4368 157.02 89.3314 157.252C89.226 157.483 89.1299 157.722 89.043 157.969C88.9531 158.224 88.8744 158.485 88.8065 158.752C88.739 159.018 88.6824 159.29 88.637 159.566C88.5922 159.841 88.5583 160.121 88.5346 160.406C88.5109 160.691 88.499 160.979 88.499 161.271C88.5 161.562 88.5119 161.852 88.5346 162.142C88.5573 162.431 88.5915 162.718 88.637 163.003C88.6828 163.289 88.7397 163.572 88.8072 163.852C88.875 164.132 88.9537 164.409 89.0439 164.683C89.1305 164.947 89.2267 165.206 89.332 165.458C89.4374 165.711 89.5517 165.957 89.6748 166.196C89.7979 166.435 89.9296 166.667 90.0702 166.892C90.2102 167.118 90.359 167.335 90.5161 167.544C90.6734 167.753 90.8364 167.953 91.0053 168.143C91.1746 168.331 91.3491 168.509 91.5295 168.676C91.7099 168.843 91.8956 169 92.0866 169.145C92.2756 169.289 92.4718 169.423 92.6743 169.546C92.8785 169.671 93.0892 169.785 93.3058 169.886C93.5159 169.984 93.7316 170.069 93.9518 170.142C94.1675 170.214 94.3871 170.271 94.6097 170.316C94.8303 170.36 95.0532 170.39 95.2774 170.407L177.462 176.431C177.701 176.449 177.941 176.425 178.172 176.36C178.289 176.327 178.404 176.285 178.515 176.233C178.63 176.18 178.741 176.117 178.847 176.047C178.955 175.975 179.057 175.897 179.155 175.812C179.257 175.723 179.353 175.628 179.444 175.527C179.54 175.421 179.631 175.309 179.715 175.194C179.803 175.075 179.887 174.948 179.967 174.813C180.048 174.678 180.124 174.538 180.195 174.391C180.267 174.245 180.334 174.093 180.397 173.935C180.459 173.778 180.518 173.615 180.571 173.446C180.624 173.278 180.673 173.104 180.717 172.926C180.763 172.742 180.803 172.554 180.836 172.362C180.869 172.171 180.898 171.977 180.921 171.78C180.944 171.583 180.962 171.384 180.973 171.182C180.984 170.979 180.99 170.775 180.99 170.568C180.989 170.362 180.984 170.157 180.973 169.952C180.962 169.748 180.945 169.545 180.921 169.343C180.898 169.142 180.87 168.942 180.836 168.744C180.802 168.546 180.762 168.35 180.717 168.156C180.673 167.969 180.624 167.786 180.571 167.607C180.518 167.43 180.46 167.256 180.397 167.085C180.334 166.914 180.266 166.748 180.195 166.587C180.124 166.426 180.048 166.27 179.967 166.119C179.887 165.968 179.803 165.824 179.715 165.688C179.628 165.552 179.538 165.422 179.444 165.3C179.351 165.178 179.254 165.063 179.155 164.957C179.057 164.853 178.955 164.753 178.847 164.66C178.742 164.569 178.63 164.484 178.515 164.406C178.405 164.333 178.29 164.268 178.172 164.211C178.058 164.156 177.941 164.11 177.82 164.074C177.703 164.039 177.582 164.013 177.461 163.998Z" fill="white"/>
<path d="M132.666 210.983C133.186 211.851 134.007 212.496 134.971 212.797C135.935 213.099 136.976 213.035 137.897 212.618C138.817 212.2 139.552 211.459 139.963 210.534C140.374 209.61 140.432 208.566 140.125 207.602L156.053 174.809L148.429 170.178L134.674 205.01C134.621 205.03 134.569 205.052 134.518 205.074C134.467 205.096 134.416 205.12 134.366 205.144C134.315 205.169 134.265 205.195 134.215 205.222C134.165 205.249 134.116 205.277 134.067 205.306C133.13 205.873 132.456 206.789 132.193 207.854C131.931 208.918 132.1 210.044 132.665 210.983L132.666 210.983Z" fill="#FFDBDB"/>
<path d="M153.013 187.454L141.698 184.548C141.698 184.548 142.067 183.711 142.668 182.324C143.268 180.938 144.107 179.004 145.051 176.809C145.995 174.614 147.042 172.161 148.064 169.737C149.087 167.312 150.082 164.917 150.92 162.841C151.757 160.765 152.709 159.521 153.665 158.824C154.457 158.221 155.454 157.956 156.44 158.085C157.206 158.199 157.938 158.479 158.587 158.904C158.894 159.095 159.182 159.314 159.448 159.559L162.072 164.341L153.013 187.454Z" fill="#EEB03A"/>
<path fill-rule="evenodd" clip-rule="evenodd" d="M61.6393 184.964C61.9092 184.913 62.1819 184.877 62.4558 184.857L62.4555 184.858C62.7258 184.838 62.9971 184.833 63.2681 184.844C63.5338 184.855 63.7988 184.882 64.0616 184.924C64.5838 185.007 65.0941 185.152 65.5821 185.356C65.8185 185.454 66.0493 185.566 66.2732 185.691C66.4974 185.815 66.7144 185.952 66.9235 186.1C67.1346 186.25 67.3374 186.411 67.531 186.583C67.7279 186.758 67.9152 186.943 68.093 187.138C68.4545 187.533 68.7762 187.964 69.0528 188.423C69.1924 188.656 69.3221 188.896 69.4423 189.143C69.5605 189.391 69.6688 189.647 69.7673 189.911C69.8684 190.183 69.9569 190.461 70.0333 190.744C70.1094 191.027 70.1729 191.315 70.2236 191.607C70.2743 191.899 70.3125 192.196 70.3379 192.497C70.3632 192.798 70.3761 193.102 70.3761 193.41C70.3761 193.719 70.3636 194.026 70.3379 194.332C70.3122 194.637 70.2743 194.942 70.2236 195.245C70.1726 195.547 70.1091 195.847 70.0333 196.145C69.9573 196.444 69.8684 196.739 69.7673 197.033C69.6695 197.316 69.5612 197.593 69.4423 197.865C69.3235 198.137 69.1941 198.403 69.0544 198.663C68.9148 198.923 68.765 199.176 68.605 199.423C68.445 199.669 68.2741 199.909 68.093 200.142C67.9126 200.375 67.7249 200.597 67.5297 200.809C67.3344 201.021 67.1319 201.223 66.9222 201.415C66.7124 201.605 66.4955 201.786 66.2719 201.955C66.048 202.123 65.8182 202.282 65.5821 202.429C65.3398 202.579 65.0899 202.717 64.8337 202.842C64.5822 202.964 64.3243 203.073 64.0613 203.168C63.8012 203.262 63.5364 203.341 63.2678 203.407C62.9997 203.471 62.7284 203.521 62.4552 203.556C62.1842 203.591 61.9115 203.61 61.6383 203.614C61.3696 203.618 61.1009 203.606 60.8332 203.579C60.3002 203.523 59.7757 203.404 59.2709 203.223C58.7783 203.047 58.3078 202.815 57.8683 202.531C57.6454 202.387 57.431 202.231 57.2256 202.064C57.0158 201.893 56.8153 201.71 56.6253 201.517C56.4321 201.321 56.2493 201.115 56.0778 200.899C55.9046 200.682 55.7426 200.456 55.5928 200.223C55.4403 199.985 55.3001 199.739 55.1723 199.487C55.0429 199.232 54.9247 198.968 54.8171 198.696C54.7068 198.414 54.6099 198.125 54.5266 197.831C54.4433 197.537 54.3739 197.237 54.3182 196.931C54.2623 196.626 54.2204 196.316 54.1925 196.001C54.1645 195.686 54.1506 195.366 54.1506 195.043C54.1506 194.72 54.1645 194.398 54.1925 194.077C54.2204 193.756 54.2623 193.438 54.3182 193.121C54.3739 192.804 54.4433 192.491 54.5266 192.18C54.6099 191.868 54.7071 191.56 54.818 191.255C54.9247 190.961 55.0433 190.674 55.1733 190.393C55.3034 190.112 55.4433 189.839 55.5931 189.572C55.7439 189.306 55.9059 189.048 56.0781 188.797C56.2503 188.546 56.4327 188.304 56.6253 188.07C56.8179 187.836 57.0178 187.614 57.2256 187.403C57.433 187.192 57.6473 186.993 57.8679 186.807C58.0889 186.62 58.3164 186.446 58.5508 186.283C58.7853 186.121 59.025 185.97 59.2706 185.832C59.5215 185.692 59.7796 185.565 60.0437 185.451C60.3018 185.341 60.5655 185.244 60.8342 185.162C61.0986 185.081 61.3673 185.015 61.6393 184.964ZM95.2768 185.706L177.461 187.679C177.581 187.682 177.702 187.694 177.82 187.718C177.94 187.741 178.058 187.775 178.172 187.818C178.29 187.862 178.405 187.915 178.515 187.977C178.63 188.042 178.742 188.116 178.847 188.197C178.955 188.278 179.058 188.367 179.155 188.461C179.257 188.56 179.354 188.665 179.445 188.774C179.538 188.886 179.629 189.006 179.716 189.134C179.803 189.262 179.887 189.397 179.968 189.539C180.048 189.682 180.124 189.83 180.196 189.983C180.268 190.136 180.335 190.295 180.397 190.459C180.459 190.622 180.517 190.791 180.57 190.965C180.624 191.139 180.673 191.317 180.716 191.5C180.762 191.69 180.802 191.882 180.836 192.075C180.87 192.269 180.898 192.466 180.921 192.666C180.945 192.865 180.962 193.067 180.973 193.271C180.983 193.475 180.989 193.68 180.99 193.884C180.99 194.091 180.984 194.296 180.973 194.499C180.961 194.703 180.944 194.904 180.921 195.104C180.898 195.304 180.869 195.501 180.836 195.695C180.802 195.89 180.763 196.081 180.716 196.269C180.673 196.452 180.624 196.63 180.571 196.802C180.517 196.975 180.459 197.145 180.397 197.312C180.334 197.476 180.267 197.635 180.195 197.788C180.124 197.942 180.048 198.091 179.967 198.234C179.887 198.376 179.803 198.512 179.715 198.641C179.628 198.77 179.538 198.89 179.444 199.002C179.354 199.112 179.257 199.217 179.155 199.317C179.058 199.412 178.955 199.501 178.847 199.584C178.741 199.665 178.63 199.739 178.515 199.805C178.405 199.868 178.29 199.922 178.172 199.967C178.058 200.011 177.94 200.045 177.82 200.069C177.702 200.093 177.581 200.107 177.461 200.111L95.2775 202.616C95.0546 202.623 94.8316 202.616 94.6097 202.595C94.3885 202.573 94.1685 202.538 93.9519 202.488C93.7326 202.438 93.5169 202.375 93.3059 202.298C93.0899 202.22 92.8791 202.129 92.6744 202.025C92.4722 201.922 92.2759 201.809 92.0866 201.684C91.8937 201.557 91.7077 201.42 91.5295 201.273C91.3468 201.122 91.1716 200.962 91.0053 200.793C90.8364 200.621 90.6731 200.439 90.5161 200.245C90.359 200.052 90.2102 199.85 90.0699 199.64C89.9297 199.43 89.798 199.211 89.6748 198.985C89.5517 198.759 89.4374 198.525 89.3321 198.284C89.2267 198.042 89.1306 197.793 89.0436 197.536C88.9537 197.272 88.8751 197.003 88.8072 196.73C88.7397 196.457 88.6828 196.181 88.6367 195.902C88.5912 195.621 88.5573 195.338 88.5346 195.051C88.5119 194.764 88.5 194.475 88.499 194.183C88.499 193.892 88.5109 193.603 88.5346 193.315C88.5583 193.028 88.5922 192.745 88.6367 192.464C88.6824 192.183 88.7387 191.906 88.8066 191.633C88.8744 191.359 88.9531 191.09 89.043 190.825C89.1299 190.569 89.226 190.32 89.3314 190.078C89.4368 189.835 89.551 189.6 89.6742 189.374C89.7973 189.146 89.929 188.927 90.0693 188.716C90.2099 188.504 90.3584 188.301 90.5154 188.106C90.6725 187.912 90.8355 187.728 91.0047 187.555C91.171 187.386 91.3461 187.224 91.5289 187.072C91.707 186.924 91.893 186.786 92.086 186.658C92.2753 186.532 92.4715 186.417 92.6737 186.313C92.8785 186.208 93.0892 186.115 93.3052 186.036C93.5163 185.958 93.7319 185.893 93.9509 185.842C94.3855 185.741 94.831 185.695 95.2768 185.706Z" fill="url(#paint5_linear_4_3601)"/>
<path fill-rule="evenodd" clip-rule="evenodd" d="M95.2768 215.903L177.461 209.88C177.7 209.862 177.94 209.886 178.171 209.951C178.288 209.983 178.403 210.026 178.514 210.078C178.629 210.131 178.74 210.194 178.846 210.264C178.954 210.336 179.057 210.414 179.154 210.499C179.256 210.588 179.353 210.684 179.444 210.784C179.54 210.89 179.63 211.001 179.715 211.117C179.802 211.236 179.886 211.362 179.967 211.498C180.047 211.633 180.124 211.773 180.196 211.919C180.267 212.065 180.334 212.217 180.397 212.375C180.46 212.532 180.518 212.695 180.571 212.864C180.624 213.032 180.673 213.205 180.716 213.384C180.762 213.568 180.802 213.756 180.836 213.947C180.87 214.139 180.898 214.333 180.921 214.531C180.945 214.728 180.962 214.927 180.972 215.129C180.983 215.331 180.989 215.535 180.99 215.741C180.99 215.947 180.984 216.153 180.973 216.357C180.962 216.562 180.944 216.765 180.921 216.966C180.898 217.168 180.869 217.367 180.836 217.566C180.802 217.764 180.763 217.96 180.716 218.154C180.673 218.341 180.624 218.524 180.571 218.703C180.517 218.882 180.459 219.057 180.397 219.228C180.334 219.398 180.267 219.565 180.195 219.726C180.124 219.888 180.048 220.044 179.967 220.194C179.887 220.345 179.803 220.488 179.715 220.625C179.628 220.762 179.538 220.891 179.444 221.013C179.35 221.135 179.253 221.249 179.155 221.356C179.058 221.46 178.955 221.56 178.847 221.653C178.742 221.744 178.63 221.829 178.515 221.907C178.405 221.98 178.29 222.045 178.172 222.102C178.058 222.157 177.941 222.203 177.82 222.239C177.703 222.274 177.582 222.3 177.461 222.315L95.2775 232.813C95.0559 232.842 94.833 232.856 94.6097 232.856C94.3898 232.857 94.1698 232.843 93.9519 232.815C93.7339 232.787 93.5182 232.744 93.3059 232.688C93.0909 232.63 92.8801 232.559 92.6744 232.474C92.4728 232.392 92.2766 232.297 92.0866 232.19C91.894 232.082 91.708 231.963 91.5295 231.834C91.3468 231.701 91.172 231.558 91.0053 231.405C90.8335 231.248 90.6702 231.082 90.5161 230.907C90.358 230.727 90.2089 230.539 90.0699 230.344C89.9297 230.147 89.798 229.941 89.6748 229.727C89.5517 229.513 89.4374 229.29 89.3321 229.059C89.2267 228.828 89.1306 228.589 89.0436 228.342C88.9537 228.086 88.8751 227.825 88.8072 227.559C88.7397 227.293 88.6828 227.021 88.637 226.745C88.5912 226.469 88.5573 226.188 88.5346 225.904C88.5119 225.619 88.5 225.331 88.499 225.039C88.499 224.748 88.5109 224.457 88.5346 224.168C88.5583 223.879 88.5922 223.592 88.637 223.307C88.6824 223.022 88.7387 222.739 88.8066 222.459C88.8744 222.178 88.9531 221.901 89.043 221.628C89.1299 221.363 89.226 221.104 89.3314 220.852C89.4368 220.6 89.551 220.354 89.6742 220.115C89.7973 219.876 89.929 219.644 90.0693 219.419C90.2099 219.194 90.3584 218.976 90.5154 218.765C90.6725 218.556 90.8355 218.356 91.0047 218.167C91.1739 217.978 91.3488 217.8 91.5289 217.633C91.709 217.468 91.8947 217.311 92.086 217.165C92.275 217.021 92.4712 216.887 92.6737 216.764C92.8778 216.639 93.0886 216.526 93.3052 216.424C93.5153 216.326 93.7309 216.24 93.9509 216.168C94.1665 216.096 94.3865 216.038 94.6091 215.994C94.8293 215.95 95.0526 215.919 95.2768 215.903ZM61.6393 218.414C61.9092 218.364 62.1819 218.328 62.4558 218.308L62.4555 218.308C62.7258 218.288 62.9971 218.284 63.2681 218.295C63.5338 218.306 63.7988 218.332 64.0616 218.374C64.5838 218.458 65.0941 218.603 65.5821 218.807C65.8185 218.905 66.0493 219.017 66.2732 219.141C66.4974 219.266 66.7144 219.402 66.9235 219.551C67.1346 219.701 67.3374 219.862 67.531 220.034C67.7279 220.209 67.9152 220.394 68.093 220.589C68.4545 220.984 68.7762 221.415 69.0528 221.874C69.1924 222.107 69.3221 222.346 69.4423 222.594C69.5605 222.842 69.6688 223.097 69.7673 223.361C69.8684 223.634 69.9569 223.912 70.0333 224.195C70.1094 224.478 70.1729 224.766 70.2236 225.058C70.2743 225.35 70.3125 225.647 70.3379 225.947C70.3632 226.248 70.3761 226.553 70.3761 226.861C70.3761 227.169 70.3636 227.477 70.3379 227.782C70.3122 228.088 70.2743 228.393 70.2236 228.695C70.1726 228.998 70.1091 229.298 70.0333 229.596C69.9573 229.894 69.8684 230.19 69.7673 230.483C69.6695 230.767 69.5612 231.044 69.4423 231.316C69.3235 231.588 69.1941 231.854 69.0544 232.114C68.9148 232.373 68.765 232.627 68.605 232.873C68.445 233.12 68.2741 233.36 68.093 233.593C67.9126 233.826 67.7249 234.048 67.5297 234.26C67.3344 234.472 67.1319 234.674 66.9222 234.865C66.7124 235.056 66.4955 235.237 66.2719 235.405C66.048 235.574 65.8182 235.732 65.5821 235.88C65.3398 236.03 65.0899 236.167 64.8337 236.292C64.5822 236.414 64.3243 236.523 64.0613 236.618C63.8012 236.712 63.5364 236.792 63.2678 236.857C62.9997 236.922 62.7284 236.972 62.4552 237.007C62.1842 237.042 61.9115 237.061 61.6383 237.065C61.3696 237.069 61.1009 237.057 60.8332 237.029C60.3002 236.974 59.7757 236.854 59.2709 236.673C58.7783 236.498 58.3078 236.265 57.8683 235.982C57.6454 235.838 57.431 235.682 57.2256 235.514C57.0158 235.343 56.8153 235.161 56.6253 234.968C56.4321 234.772 56.2493 234.566 56.0778 234.35C55.9046 234.133 55.7426 233.907 55.5928 233.674C55.4403 233.435 55.3001 233.19 55.1723 232.938C55.0429 232.683 54.9247 232.419 54.8171 232.147C54.7068 231.864 54.6099 231.576 54.5266 231.281C54.4433 230.987 54.3739 230.687 54.3182 230.382C54.2623 230.077 54.2204 229.767 54.1925 229.451C54.1645 229.136 54.1506 228.817 54.1506 228.494C54.1506 228.17 54.1645 227.848 54.1925 227.528C54.2204 227.207 54.2623 226.888 54.3182 226.572C54.3739 226.255 54.4433 225.942 54.5266 225.63C54.6099 225.319 54.7071 225.011 54.818 224.706C54.9247 224.412 55.0433 224.125 55.1733 223.844C55.3034 223.563 55.4433 223.289 55.5931 223.023C55.7439 222.757 55.9059 222.499 56.0781 222.248C56.2503 221.997 56.4327 221.755 56.6253 221.521C56.8179 221.287 57.0178 221.064 57.2256 220.854C57.433 220.643 57.6473 220.444 57.8679 220.258C58.0889 220.071 58.3164 219.896 58.5508 219.734C58.7853 219.571 59.025 219.421 59.2706 219.283C59.5215 219.142 59.7796 219.015 60.0437 218.902C60.3018 218.791 60.5655 218.695 60.8342 218.612C61.0986 218.532 61.3673 218.465 61.6393 218.414Z" fill="url(#paint6_linear_4_3601)"/>
<path d="M62.457 148.619C62.1847 148.613 61.9118 148.622 61.6405 148.646C61.3702 148.67 61.1012 148.711 60.8355 148.766C60.5681 148.822 60.304 148.893 60.0449 148.979C59.7818 149.067 59.5237 149.169 59.2718 149.285C59.0255 149.399 58.7852 149.526 58.5521 149.665C58.3166 149.805 58.0888 149.958 57.8692 150.122C57.6459 150.289 57.4316 150.468 57.2265 150.656C57.0177 150.848 56.8175 151.051 56.6253 151.266C56.4326 151.482 56.2502 151.706 56.078 151.94C55.9058 152.174 55.7438 152.417 55.593 152.668C55.4426 152.923 55.3023 153.184 55.1722 153.451C55.0419 153.718 54.9237 153.994 54.817 154.279C54.7067 154.572 54.6099 154.87 54.5266 155.174C54.4433 155.477 54.3738 155.784 54.3181 156.095C54.2622 156.407 54.2204 156.721 54.1924 157.039C54.1644 157.356 54.1506 157.676 54.1506 158C54.1506 158.322 54.1644 158.643 54.1924 158.96C54.2204 159.278 54.2622 159.592 54.3181 159.903C54.3738 160.214 54.4433 160.52 54.5266 160.823C54.6099 161.125 54.7067 161.423 54.817 161.716C54.9246 161.999 55.0428 162.274 55.1722 162.542C55.3023 162.808 55.4429 163.067 55.594 163.317C55.7451 163.568 55.9068 163.809 56.079 164.042C56.2512 164.276 56.4336 164.499 56.6262 164.712C56.8189 164.926 57.019 165.128 57.2265 165.317C57.4306 165.505 57.644 165.683 57.8659 165.849C58.0855 166.012 58.3134 166.163 58.5488 166.302C58.7819 166.44 59.0222 166.565 59.2685 166.677C59.5204 166.792 59.7785 166.892 60.0416 166.978C60.5595 167.146 61.0949 167.253 61.6372 167.298C62.1801 167.343 62.7267 167.326 63.266 167.249C63.5334 167.21 63.7984 167.156 64.0599 167.087C64.3216 167.018 64.5794 166.934 64.832 166.836C65.0878 166.736 65.3374 166.623 65.5807 166.497C65.8178 166.373 66.0486 166.238 66.2718 166.091C66.4964 165.943 66.7133 165.783 66.9221 165.613C67.1318 165.443 67.3343 165.261 67.5296 165.067C67.7248 164.874 67.9125 164.67 68.0926 164.455C68.274 164.239 68.4449 164.016 68.6049 163.785C68.7649 163.554 68.9148 163.315 69.0544 163.069C69.1946 162.823 69.3237 162.57 69.4422 162.309C69.5604 162.049 69.6688 161.782 69.7672 161.51C69.8683 161.226 69.9572 160.94 70.0329 160.648C70.109 160.358 70.1725 160.063 70.2236 159.766C70.2739 159.467 70.3121 159.166 70.3378 158.863C70.3632 158.559 70.376 158.253 70.376 157.945C70.376 157.637 70.3632 157.331 70.3378 157.028C70.3125 156.724 70.2743 156.424 70.2236 156.127C70.1728 155.83 70.1093 155.536 70.0329 155.245C69.9569 154.955 69.8683 154.668 69.7672 154.385C69.6688 154.112 69.5604 153.846 69.4422 153.587C69.3237 153.327 69.194 153.074 69.0527 152.828C68.9128 152.584 68.763 152.347 68.603 152.116C68.4429 151.886 68.273 151.664 68.0926 151.45C67.9138 151.237 67.7265 151.034 67.5309 150.842C67.3353 150.65 67.1328 150.469 66.9234 150.3C66.715 150.131 66.498 149.973 66.2735 149.826C66.0502 149.681 65.8194 149.546 65.5824 149.424C65.3394 149.299 65.0895 149.188 64.834 149.09C64.5814 148.993 64.3233 148.911 64.0615 148.844C63.8001 148.776 63.535 148.724 63.268 148.687C62.9983 148.65 62.7274 148.628 62.4554 148.622L62.457 148.619ZM62.4554 147.731C63.6483 147.764 64.8181 148.068 65.8774 148.619C66.9297 149.17 67.8625 149.925 68.6214 150.84C69.4152 151.794 70.0332 152.882 70.4468 154.052C71.3325 156.571 71.3325 159.319 70.4468 161.838C70.0326 163.012 69.4149 164.103 68.6214 165.061C67.8621 165.98 66.9297 166.741 65.8767 167.299C64.8191 167.857 63.6496 168.168 62.4551 168.209C61.2533 168.249 60.0584 168.01 58.9636 167.512C57.8583 167.004 56.8696 166.273 56.0593 165.365C55.1986 164.404 54.5253 163.289 54.0735 162.079C53.095 159.446 53.095 156.547 54.0735 153.914C54.5256 152.7 55.1989 151.581 56.0593 150.615C56.8692 149.702 57.858 148.965 58.9636 148.45C60.0578 147.944 61.253 147.698 62.457 147.73L62.4554 147.731Z" fill="white"/>
<path d="M62.4563 160.487L59.6589 154.647L60.3231 154.214L62.6272 159.011L72.3008 147.616L72.8865 148.242L62.4563 160.487Z" fill="white"/>
<path d="M164.258 275.776L157.333 275.749L159.566 293.881L164.258 293.905V275.776Z" fill="#FFDBDB"/>
<path d="M165.454 298.467L150.334 298.387V298.195C150.334 297.807 150.372 297.419 150.447 297.037C150.595 296.285 150.892 295.569 151.319 294.932C151.752 294.287 152.308 293.733 152.954 293.302C153.592 292.877 154.307 292.583 155.059 292.437C155.44 292.364 155.827 292.328 156.215 292.331L165.454 292.376V298.467Z" fill="#704FE9"/>
<path d="M142.086 275.69L135.181 275.663L137.407 293.77L142.086 293.794V275.69Z" fill="#FFDBDB"/>
<path d="M143.279 298.349L128.199 298.27V298.079C128.199 297.69 128.237 297.303 128.312 296.922C128.46 296.171 128.756 295.456 129.181 294.82C129.613 294.175 130.167 293.622 130.812 293.191C131.448 292.767 132.162 292.474 132.912 292.329C133.292 292.255 133.679 292.22 134.066 292.222L143.279 292.267V298.349Z" fill="#704FE9"/>
<path d="M141.792 201.581L130.181 245.003L134.431 286.627L143.841 286.887L141.792 249.303L153.532 230.547L156.078 287.143L164.614 286.537L169.363 237.877C170.975 234.077 172.158 230.108 172.889 226.045C173.463 222.855 173.743 219.619 173.723 216.378C173.714 214.196 173.546 212.018 173.222 209.86C173.107 209.056 172.95 208.258 172.753 207.47L169.291 203.953L141.792 201.581Z" fill="#704FE9"/>
<path d="M157.176 208.843C155.223 208.843 153.391 208.78 151.73 208.656C150.032 208.539 148.344 208.316 146.675 207.989C145.254 207.723 143.869 207.286 142.552 206.688C141.492 206.229 140.57 205.5 139.878 204.573L139.799 204.458L142.973 183.76L146.395 160.489C146.62 158.948 147.403 157.545 148.594 156.546C149.784 155.546 151.3 155.021 152.853 155.069L163.571 155.398C164.375 155.423 165.165 155.609 165.896 155.945C166.627 156.282 167.282 156.762 167.824 157.357C168.366 157.953 168.784 158.651 169.052 159.411C169.319 160.171 169.432 160.977 169.383 161.781L167.976 184.925L173.166 207.755L172.799 207.806C172.651 207.826 172.081 207.901 171.189 208.002C170.023 208.133 168.832 208.251 167.65 208.354C165.977 208.498 164.34 208.611 162.785 208.691C160.812 208.792 158.922 208.841 157.176 208.843Z" fill="#EEB03A"/>
<path d="M151.228 150.956C151.225 150.956 151.222 150.956 151.219 150.956C150.995 150.956 150.772 150.912 150.564 150.825C150.357 150.739 150.168 150.612 150.009 150.453C149.85 150.294 149.724 150.104 149.638 149.896C149.552 149.688 149.508 149.465 149.508 149.239V139.663C149.507 137.947 149.849 136.249 150.516 134.669C151.821 131.585 154.263 129.125 157.334 127.801C159.276 126.966 161.394 126.627 163.499 126.814C165.604 127.001 167.63 127.708 169.395 128.872C171.16 130.036 172.61 131.621 173.614 133.484C174.618 135.347 175.145 137.431 175.149 139.549V149.139C175.149 149.37 175.103 149.599 175.013 149.811C174.837 150.226 174.508 150.556 174.095 150.733C173.883 150.824 173.654 150.871 173.424 150.872L151.227 150.956H151.228Z" fill="#2E2889"/>
<path d="M168.117 136.379C169.011 138.015 169.402 139.88 169.238 141.739C169.075 143.598 168.366 145.366 167.201 146.821C166.035 148.276 164.465 149.352 162.69 149.914C160.914 150.475 159.013 150.497 157.225 149.976C156.041 149.635 154.937 149.062 153.975 148.291C153.014 147.519 152.215 146.564 151.625 145.48C150.733 143.844 150.344 141.98 150.508 140.124C150.672 138.267 151.38 136.5 152.544 135.046C153.708 133.592 155.276 132.516 157.05 131.954C158.823 131.391 160.723 131.368 162.51 131.886C163.695 132.226 164.8 132.798 165.763 133.569C166.726 134.34 167.526 135.295 168.117 136.379V136.379Z" fill="#FFDBDB"/>
<path d="M146.478 140.443C146.476 139.086 146.747 137.742 147.274 136.492C148.306 134.054 150.238 132.109 152.666 131.062C153.912 130.527 155.252 130.249 156.608 130.244L158.52 130.234C158.542 130.234 158.563 130.234 158.585 130.234C159.909 130.235 161.22 130.497 162.444 131.006C163.667 131.514 164.778 132.259 165.714 133.199C166.65 134.138 167.392 135.252 167.898 136.479C168.404 137.705 168.665 139.019 168.664 140.346V140.538L164.618 140.555L163.238 136.692L162.962 140.562L160.872 140.571L160.177 138.623L160.037 140.574L146.479 140.635L146.478 140.443Z" fill="#2E2889"/>
<path d="M130.189 160.587C129.566 160.74 128.984 161.026 128.482 161.425C128.09 161.737 127.755 162.113 127.491 162.539C126.971 163.382 126.743 164.373 126.839 165.358C126.888 165.857 127.023 166.343 127.238 166.794C127.502 167.358 127.883 167.858 128.355 168.263C128.827 168.668 129.38 168.968 129.975 169.143C130.572 169.318 131.198 169.364 131.813 169.279C132.429 169.194 133.019 168.979 133.545 168.648C133.584 168.623 133.623 168.598 133.661 168.572C133.699 168.546 133.736 168.52 133.772 168.493C133.81 168.466 133.846 168.438 133.881 168.411C133.917 168.383 133.953 168.355 133.987 168.326L156.314 176.289C157.001 176.534 157.749 176.549 158.445 176.331C159.141 176.113 159.747 175.674 160.173 175.081L165.466 167.737L159.067 163.418L155.709 167.241L135.276 163.169C135.253 163.115 135.23 163.063 135.207 163.01C135.183 162.957 135.158 162.905 135.132 162.853C135.105 162.801 135.078 162.75 135.05 162.698C135.022 162.647 134.993 162.596 134.961 162.545C134.474 161.756 133.75 161.142 132.892 160.79C132.035 160.438 131.089 160.367 130.189 160.587Z" fill="#FFDBDB"/>
<path d="M156.069 164.831C156.737 163.996 157.67 162.911 158.619 161.835C159.568 160.76 160.531 159.694 161.257 158.896C161.983 158.099 162.472 157.57 162.472 157.57C163.142 156.554 164.143 155.802 165.303 155.442C166.464 155.082 167.714 155.135 168.84 155.593C169.966 156.052 170.899 156.886 171.48 157.955C172.061 159.025 172.256 160.263 172.03 161.459C171.9 162.148 171.633 162.804 171.245 163.387C171.245 163.387 170.517 164.342 169.417 165.767C168.317 167.193 166.846 169.091 165.363 170.978C163.879 172.865 162.381 174.742 161.225 176.127C160.07 177.513 159.257 178.408 159.142 178.331L155.113 166.327C154.998 166.25 155.401 165.666 156.069 164.831Z" fill="#EEB03A"/>
<path d="M158.46 150.655C158.397 150.964 158.421 151.286 158.531 151.582C158.586 151.734 158.662 151.877 158.757 152.007C158.838 152.118 158.932 152.22 159.037 152.308C159.347 152.571 159.741 152.715 160.148 152.713C160.173 152.713 160.198 152.712 160.224 152.711C160.249 152.71 160.274 152.708 160.3 152.705C160.325 152.704 160.351 152.701 160.376 152.697C160.401 152.694 160.427 152.689 160.452 152.685L161.888 152.423L163.866 148.189V152.068L170.395 150.89V134.429L159.45 134.482L159.72 134.797C160.619 135.854 161.208 137.139 161.425 138.51C161.637 139.898 161.611 141.313 161.346 142.692C161.089 144.089 160.699 145.457 160.181 146.778C159.728 147.948 159.208 149.092 158.624 150.202C158.549 150.345 158.493 150.497 158.46 150.655Z" fill="#2E2889"/>
<path d="M119.52 138.288C120.247 138.288 120.837 137.698 120.837 136.971C120.837 136.244 120.247 135.654 119.52 135.654C118.793 135.654 118.203 136.244 118.203 136.971C118.203 137.698 118.793 138.288 119.52 138.288Z" fill="#E6E6E6"/>
<path d="M133.349 130.386C134.076 130.386 134.666 129.796 134.666 129.069C134.666 128.341 134.076 127.752 133.349 127.752C132.622 127.752 132.032 128.341 132.032 129.069C132.032 129.796 132.622 130.386 133.349 130.386Z" fill="#E6E6E6"/>
</g>
</svg>